<svg xmlns="http://www.w3.org/2000/svg" viewBox="0 0 289.44 70.63"><g id="Layer_2" data-name="Layer 2"><g id="Layer_1-2" data-name="Layer 1"><path d="M12.52,11.69c3.14.74,4.71,2.45,4.71,5.15a5.63,5.63,0,0,1-2,4.31C13.89,22.35,11.75,23,8.81,23A15.23,15.23,0,0,1,2.64,21.8Q0,20.63,0,19.88a.81.81,0,0,1,.26-.62A.79.79,0,0,1,.76,19a1.38,1.38,0,0,1,.65.22A19.21,19.21,0,0,0,5.12,21,13.18,13.18,0,0,0,9,21.48a7.74,7.74,0,0,0,4.94-1.33,4.11,4.11,0,0,0,1.65-3.35,3.44,3.44,0,0,0-1.06-2.52,5.06,5.06,0,0,0-2.69-1.37,27.33,27.33,0,0,0-4.67-.31h-1c-.83,0-1.25-.24-1.25-.74s.42-.75,1.25-.75h1q7.64,0,7.63-4.26a3.34,3.34,0,0,0-1.65-3A7.48,7.48,0,0,0,9,2.81,6.42,6.42,0,0,0,4.47,4.34a7,7,0,0,0-2.1,3.87c-.09.5-.32.75-.68.75A.6.6,0,0,1,1,8.28a13.12,13.12,0,0,1,.16-1.62,10.55,10.55,0,0,0,.07-1.12c0-.09,0-.67-.05-1.74s-.07-1.54-.07-1.55a.6.6,0,0,1,.67-.69c.38,0,.63.34.73,1s.34,1.08.67,1.08a.89.89,0,0,0,.49-.27A8.45,8.45,0,0,1,9.18,1.33,8.22,8.22,0,0,1,14.55,2.9a4.86,4.86,0,0,1,1.89,3.9Q16.44,10.25,12.52,11.69Z"/><path d="M34.65,22.38V20.25A10.55,10.55,0,0,1,27.77,23a6,6,0,0,1-4.15-1.35,4.28,4.28,0,0,1-1.49-3.29,4.74,4.74,0,0,1,2-3.75A8.92,8.92,0,0,1,29.85,13c.68,0,1.42,0,2.21.13s1.66.23,2.59.42V11.13A2.63,2.63,0,0,0,33.52,9a5.32,5.32,0,0,0-3.37-.9,17.05,17.05,0,0,0-4.84,1,3.17,3.17,0,0,1-.72.18.63.63,0,0,1-.48-.21.72.72,0,0,1-.2-.53.64.64,0,0,1,.17-.48,6.45,6.45,0,0,1,2-.72,17.56,17.56,0,0,1,4.15-.73A6.39,6.39,0,0,1,34.58,8a4.09,4.09,0,0,1,1.56,3.12V20.9h2a1.19,1.19,0,0,1,.77.2.68.68,0,0,1,.23.54.68.68,0,0,1-.23.53,1.13,1.13,0,0,1-.77.21Zm0-7.35a13.6,13.6,0,0,0-2.2-.44A21.09,21.09,0,0,0,30,14.45a8.06,8.06,0,0,0-5,1.39,3,3,0,0,0-1.37,2.48,2.89,2.89,0,0,0,1,2.25,4.57,4.57,0,0,0,3.05.91,8.31,8.31,0,0,0,3.56-.77,12.6,12.6,0,0,0,3.39-2.43Z"/><path d="M67.94,20.9V8.65H66c-.65,0-1-.25-1-.74s.33-.76,1-.76h8q6,0,6,3.8c0,1.58-1,2.6-3.09,3,3.1.41,4.66,1.76,4.66,4,0,2.9-1.94,4.35-5.8,4.35H66c-.65,0-1-.25-1-.74s.33-.74,1-.74Zm1.48-7.58h4q5.11,0,5.12-2.46a1.85,1.85,0,0,0-.87-1.62A7.19,7.19,0,0,0,74,8.65H69.42Zm0,7.58H75.6c3,0,4.43-.95,4.43-2.85a2.9,2.9,0,0,0-1.12-2.32q-1.12-.93-5.45-.93h-4Z"/><path d="M99.46,22.38V20.25A10.55,10.55,0,0,1,92.58,23a5.93,5.93,0,0,1-4.14-1.35,4.25,4.25,0,0,1-1.5-3.29,4.74,4.74,0,0,1,2-3.75A8.92,8.92,0,0,1,94.66,13c.68,0,1.42,0,2.21.13s1.66.23,2.59.42V11.13A2.63,2.63,0,0,0,98.33,9,5.32,5.32,0,0,0,95,8.12a17.05,17.05,0,0,0-4.84,1,3.17,3.17,0,0,1-.72.18.63.63,0,0,1-.48-.21.72.72,0,0,1-.2-.53.69.69,0,0,1,.17-.48,6.45,6.45,0,0,1,2-.72A17.56,17.56,0,0,1,95,6.63,6.39,6.39,0,0,1,99.39,8,4.09,4.09,0,0,1,101,11.13V20.9h2a1.19,1.19,0,0,1,.77.2.68.68,0,0,1,.23.54.68.68,0,0,1-.23.53,1.13,1.13,0,0,1-.77.21Zm0-7.35a13.6,13.6,0,0,0-2.2-.44,21.09,21.09,0,0,0-2.44-.14,8.06,8.06,0,0,0-5,1.39,3,3,0,0,0-1.37,2.48,2.89,2.89,0,0,0,1,2.25,4.57,4.57,0,0,0,3.05.91,8.31,8.31,0,0,0,3.56-.77,12.6,12.6,0,0,0,3.39-2.43Z"/><path d="M123.43,20.9V8.65h-.82c-.66,0-1-.25-1-.74s.33-.76,1-.76h3.11c.67,0,1,.26,1,.76s-.33.74-1,.74h-.81V20.9H126c.66,0,1,.25,1,.74s-.34.74-1,.74H107.58c-.66,0-1-.25-1-.74s.33-.74,1-.74h1.14V8.65h-.83c-.65,0-1-.25-1-.74s.33-.76,1-.76H111c.66,0,1,.26,1,.76s-.34.74-1,.74h-.81V20.9h5.87V8.65h-.81c-.66,0-1-.25-1-.74s.32-.76,1-.76h3.11c.66,0,1,.26,1,.76s-.33.74-1,.74h-.81V20.9Z"/><path d="M132.47,8.65,138.71,20,144.9,8.65h-1.3c-.82,0-1.23-.25-1.23-.74s.41-.76,1.23-.76h3.78c.82,0,1.23.26,1.23.76s-.41.74-1.23.74h-.83L138,24.27A8.81,8.81,0,0,1,136,27a3.54,3.54,0,0,1-2.23.76,7.27,7.27,0,0,1-1.7-.18,2,2,0,0,1-1-.45,1.53,1.53,0,0,1-.25-1v-2c0-.8.25-1.2.74-1.2s.74.37.74,1.11v2.16a4.92,4.92,0,0,0,1.21.16,2.67,2.67,0,0,0,1.7-.51,7.69,7.69,0,0,0,1.54-2.16l1.12-2.06-7.05-12.9h-.88c-.82,0-1.23-.25-1.23-.74s.41-.76,1.23-.76h3.92c.82,0,1.23.26,1.23.76s-.41.74-1.23.74Z"/><path d="M176.34,22.38h-3.51c-.66,0-1-.25-1-.74s.33-.74,1-.74h1.77V8.65h-1.77c-.66,0-1-.25-1-.74s.33-.76,1-.76h5.24c.65,0,1,.26,1,.76s-.33.74-1,.74h-2v11.6l10.63-13.1h3.71c.66,0,1,.26,1,.76s-.33.74-1,.74h-2V20.9h2c.66,0,1,.25,1,.74s-.33.74-1,.74H185c-.65,0-1-.25-1-.74s.33-.74,1-.74h2V9.32Z"/><path d="M46.41,58H36.83v5.79H38.5c.65,0,1,.24,1,.74s-.33.73-1,.73H33.68c-.66,0-1-.24-1-.73s.32-.74,1-.74h1.67V51.53H34.21c-.66,0-1-.25-1-.74s.33-.76,1-.76H38c.65,0,1,.25,1,.76s-.33.74-1,.74H36.83v5h9.58v-5H45.28c-.67,0-1-.25-1-.74s.33-.76,1-.76H49c.65,0,1,.25,1,.76s-.33.74-1,.74H47.88V63.78h1.67c.66,0,1,.24,1,.74s-.33.73-1,.73H44.74c-.66,0-1-.24-1-.73s.33-.74,1-.74h1.67Z"/><path d="M67.46,65.25V63.13a10.5,10.5,0,0,1-6.87,2.7,6,6,0,0,1-4.15-1.34A4.3,4.3,0,0,1,55,61.19a4.73,4.73,0,0,1,2-3.74,8.92,8.92,0,0,1,5.75-1.6,19.71,19.71,0,0,1,2.21.13q1.2.14,2.58.42V54a2.62,2.62,0,0,0-1.12-2.1A5.35,5.35,0,0,0,63,51a17.06,17.06,0,0,0-4.83,1,3.17,3.17,0,0,1-.72.18.63.63,0,0,1-.48-.21.74.74,0,0,1-.21-.53A.65.65,0,0,1,56.9,51a6.33,6.33,0,0,1,2-.72A17.61,17.61,0,0,1,63,49.5a6.34,6.34,0,0,1,4.35,1.38A4.07,4.07,0,0,1,69,54v9.78h2a1.19,1.19,0,0,1,.77.2.73.73,0,0,1,0,1.06,1.13,1.13,0,0,1-.77.21Zm0-7.34a13.47,13.47,0,0,0-2.19-.44,19.24,19.24,0,0,0-2.45-.14,8,8,0,0,0-5,1.39,3,3,0,0,0-1.37,2.47,2.86,2.86,0,0,0,1,2.25,4.52,4.52,0,0,0,3.05.92,8.31,8.31,0,0,0,3.56-.77,12.8,12.8,0,0,0,3.38-2.43Z"/><path d="M91.44,63.78V51.53h-.82c-.66,0-1-.25-1-.74s.33-.76,1-.76h3.11c.66,0,1,.25,1,.76s-.34.74-1,.74h-.81V63.78H94c.67,0,1,.24,1,.74s-.33.73-1,.73H75.59c-.66,0-1-.24-1-.73s.33-.74,1-.74h1.14V51.53H75.9c-.65,0-1-.25-1-.74s.33-.76,1-.76H79c.67,0,1,.25,1,.76s-.34.74-1,.74h-.8V63.78h5.87V51.53h-.81c-.66,0-1-.25-1-.74s.33-.76,1-.76h3.11c.66,0,1,.25,1,.76s-.32.74-1,.74h-.81V63.78Z"/><path d="M100.48,51.53l6.24,11.32,6.18-11.32h-1.3c-.82,0-1.23-.25-1.23-.74s.41-.76,1.23-.76h3.78c.82,0,1.23.25,1.23.76s-.41.74-1.23.74h-.82L106,67.15A8.93,8.93,0,0,1,104,69.87a3.55,3.55,0,0,1-2.24.76,7.24,7.24,0,0,1-1.69-.18A2,2,0,0,1,99,70a1.54,1.54,0,0,1-.25-1v-2c0-.79.25-1.19.74-1.19s.74.37.74,1.11V69a5.37,5.37,0,0,0,1.21.16,2.62,2.62,0,0,0,1.69-.51,7.24,7.24,0,0,0,1.54-2.17l1.13-2-7-12.9h-.88c-.82,0-1.23-.25-1.23-.74s.41-.76,1.23-.76h3.92c.82,0,1.23.25,1.23.76s-.41.74-1.23.74Z"/><path d="M155.79,51.53V51a1.12,1.12,0,0,1,.22-.77.68.68,0,0,1,.52-.23.72.72,0,0,1,.55.23,1.13,1.13,0,0,1,.21.77v3.34a1.27,1.27,0,0,1-.22.78.69.69,0,0,1-.54.23.67.67,0,0,1-.5-.21,1.1,1.1,0,0,1-.24-.67,3.42,3.42,0,0,0-1.64-2.38A6.85,6.85,0,0,0,150,51a6.09,6.09,0,0,0-5,2.06,7.15,7.15,0,0,0-1.71,4.71,6.34,6.34,0,0,0,1.89,4.72,6.57,6.57,0,0,0,4.86,1.87,10.5,10.5,0,0,0,3.51-.63,9,9,0,0,0,3.23-2,1,1,0,0,1,.65-.36.67.67,0,0,1,.5.21.69.69,0,0,1,.2.5c0,.5-.59,1.14-1.77,1.91A11.37,11.37,0,0,1,150,65.83a8,8,0,0,1-5.86-2.27,7.79,7.79,0,0,1-2.29-5.78,8,8,0,0,1,8.26-8.28A8.3,8.3,0,0,1,155.79,51.53Z"/><path d="M165.57,63.78V51.53h-2c-.65,0-1-.25-1-.74s.33-.76,1-.76h8q6,0,6,3.8,0,2.37-3.09,3c3.1.41,4.66,1.76,4.66,4,0,2.9-1.94,4.34-5.8,4.34h-9.78c-.65,0-1-.24-1-.73s.33-.74,1-.74ZM167,56.2h4q5.12,0,5.12-2.46a1.88,1.88,0,0,0-.87-1.63,7.33,7.33,0,0,0-3.63-.58H167Zm0,7.58h6.19c3,0,4.43-1,4.43-2.85a2.88,2.88,0,0,0-1.12-2.32q-1.12-.93-5.45-.93H167Z"/><path d="M201.09,57.68a7.79,7.79,0,0,1-2.41,5.76,8.33,8.33,0,0,1-11.68,0,8.11,8.11,0,0,1,0-11.54,8.31,8.31,0,0,1,11.68,0A7.82,7.82,0,0,1,201.09,57.68Zm-1.49,0a6.4,6.4,0,0,0-2-4.73A6.85,6.85,0,0,0,188,53a6.6,6.6,0,0,0,0,9.43,6.82,6.82,0,0,0,9.58,0A6.41,6.41,0,0,0,199.6,57.68Z"/><path d="M207.49,52.93a8.52,8.52,0,0,1,7.1-3.43,8.38,8.38,0,0,1,6.29,2.37,8,8,0,0,1,2.31,5.81,7.87,7.87,0,0,1-2.35,5.8,8.46,8.46,0,0,1-6.28,2.35,9.16,9.16,0,0,1-4.81-1.2,7.53,7.53,0,0,1-2.93-3.06,12.07,12.07,0,0,1-.93-5.3,24.4,24.4,0,0,1,.62-6.69,5.78,5.78,0,0,1,2.07-2.92,7,7,0,0,1,4.19-1.08h3.35c1.75,0,2.74-.35,3-1.07a2.23,2.23,0,0,1,.36-.74.68.68,0,0,1,.49-.14c.55,0,.82.29.82.86a2.26,2.26,0,0,1-1,1.78,5.71,5.71,0,0,1-3.48.79h-3.53a6.05,6.05,0,0,0-2.9.61,3.6,3.6,0,0,0-1.63,1.69A12.49,12.49,0,0,0,207.49,52.93Zm0,4.71a6.86,6.86,0,0,0,1.79,4.61,6.62,6.62,0,0,0,5.26,2.06,6.87,6.87,0,0,0,5.11-2,6.75,6.75,0,0,0,0-9.43,7.76,7.76,0,0,0-10.24,0A6.44,6.44,0,0,0,207.51,57.64Z"/><path d="M244.3,57.68a7.77,7.77,0,0,1-2.42,5.76,8,8,0,0,1-5.82,2.39,8,8,0,0,1-5.86-2.39,8.11,8.11,0,0,1,0-11.54,8.31,8.31,0,0,1,11.68,0A7.79,7.79,0,0,1,244.3,57.68Zm-1.49,0a6.4,6.4,0,0,0-2-4.73,6.85,6.85,0,0,0-9.58,0,6.6,6.6,0,0,0,0,9.43,6.82,6.82,0,0,0,9.58,0A6.41,6.41,0,0,0,242.81,57.68Z"/><path d="M265.39,65.25H249.91v2.61c0,.73-.25,1.1-.76,1.1s-.72-.39-.72-1.17V65c0-.61.07-1,.22-1.06a1.55,1.55,0,0,1,.7-.19,6.16,6.16,0,0,0,2.93-1.24q1.66-1.14,1.67-4.7V51.53H252c-.83,0-1.25-.25-1.25-.74S251.19,50,252,50h13.62c.82,0,1.23.25,1.23.76s-.41.74-1.23.74h-1.46V63.78h1.46a1.69,1.69,0,0,1,1,.2c.15.13.22.47.22,1v2.8q0,1.17-.72,1.17c-.5,0-.76-.37-.76-1.1Zm-10-13.72V57.8q0,4.35-2.5,6h9.76V51.53Z"/><path d="M273.3,51.53l6.24,11.32,6.19-11.32h-1.3c-.82,0-1.23-.25-1.23-.74s.41-.76,1.23-.76h3.78c.82,0,1.23.25,1.23.76s-.41.74-1.23.74h-.83l-8.54,15.62a8.93,8.93,0,0,1-2,2.72,3.57,3.57,0,0,1-2.24.76,7.18,7.18,0,0,1-1.69-.18,2.07,2.07,0,0,1-1-.45,1.61,1.61,0,0,1-.24-1v-2c0-.79.24-1.19.74-1.19s.73.37.73,1.11V69a5.53,5.53,0,0,0,1.22.16,2.62,2.62,0,0,0,1.69-.51,7.43,7.43,0,0,0,1.54-2.17l1.13-2-7.05-12.9h-.88c-.82,0-1.23-.25-1.23-.74s.41-.76,1.23-.76h3.92c.82,0,1.23.25,1.23.76s-.41.74-1.23.74Z"/><path d="M238.32,12.34l16-8.89a1.28,1.28,0,0,1,.58-.22.72.72,0,0,1,.51.22.7.7,0,0,1,.22.52c0,.3-.2.55-.59.78l-13.68,7.59L255,19.93c.4.23.6.48.6.78a.75.75,0,0,1-.74.74,1.32,1.32,0,0,1-.58-.22Z"/><path d="M272,10.58a7.15,7.15,0,0,1,3.11,2.51,5.79,5.79,0,0,1,1.07,3.31,6.27,6.27,0,0,1-2.15,4.68,7.53,7.53,0,0,1-5.39,2,10.68,10.68,0,0,1-3.94-.81,8.09,8.09,0,0,1-2.84-1.66.83.83,0,0,1-.27-.59.74.74,0,0,1,.2-.5.67.67,0,0,1,.49-.21,1.06,1.06,0,0,1,.63.27,9.58,9.58,0,0,0,5.77,2A6.06,6.06,0,0,0,273,20a4.79,4.79,0,0,0,1.74-3.58,4.55,4.55,0,0,0-.86-2.58,5.72,5.72,0,0,0-2.45-2,7.79,7.79,0,0,0-3.23-.73,1.12,1.12,0,0,1-.76-.2.67.67,0,0,1-.23-.53.73.73,0,0,1,.22-.53.93.93,0,0,1,.66-.21l1.27,0a4.62,4.62,0,0,0,3.28-1.22,3.74,3.74,0,0,0,1.29-2.81,3.89,3.89,0,0,0-1.36-2.92,5,5,0,0,0-3.53-1.26,7.32,7.32,0,0,0-2.81.52,5.35,5.35,0,0,0-2.06,1.45,2.08,2.08,0,0,1-.43.43.74.74,0,0,1-.34.08.69.69,0,0,1-.51-.21.63.63,0,0,1-.21-.48c0-.47.51-1.06,1.53-1.78A8.22,8.22,0,0,1,269.05,0a6.46,6.46,0,0,1,4.59,1.68,5.31,5.31,0,0,1,1.79,4,5.05,5.05,0,0,1-.86,2.79A6,6,0,0,1,272,10.58Z"/></g></g></svg>